<?xml version="1.0" encoding="utf-8"?>
<!-- Generator: Adobe Illustrator 19.2.1, SVG Export Plug-In . SVG Version: 6.00 Build 0)  -->
<svg version="1.1" id="Layer_1" xmlns="http://www.w3.org/2000/svg" xmlns:xlink="http://www.w3.org/1999/xlink" x="0px" y="0px"
	 viewBox="0 0 283.5 86.9" style="enable-background:new 0 0 283.5 86.9;" xml:space="preserve">
<style type="text/css">
	.st0{fill-rule:evenodd;clip-rule:evenodd;fill:#970048;}
	.st1{fill-rule:evenodd;clip-rule:evenodd;fill:#EB6BB0;}
	.st2{fill-rule:evenodd;clip-rule:evenodd;fill:#E11383;}
</style>
<polygon points="0.1,81.1 0.1,86.1 3.8,86.1 3.8,85.6 0.7,85.6 0.7,83.8 3.5,83.8 3.5,83.3 0.7,83.3 0.7,81.6 3.8,81.6 3.8,81.1 "/>
<polygon points="5.8,81.1 6.5,81.1 8.3,85.4 10.1,81.1 10.7,81.1 8.5,86.2 8,86.2 "/>
<polygon points="13,81.1 16.7,81.1 16.7,81.6 13.6,81.6 13.6,83.3 16.4,83.3 16.4,83.8 13.6,83.8 13.6,85.6 16.7,85.6 16.7,86.1 
	13,86.1 "/>
<polygon points="19.2,81.1 19.7,81.1 22.9,85.1 22.9,81.1 23.5,81.1 23.5,86.1 23,86.1 19.8,82 19.8,86.1 19.2,86.1 "/>
<polygon points="27.6,81.6 25.9,81.6 25.9,81.1 29.9,81.1 29.9,81.6 28.2,81.6 28.2,86.1 27.6,86.1 "/>
<g>
	<path d="M38.6,85.4c-0.5,0.5-1,0.8-1.7,0.8c-0.9,0-1.6-0.6-1.6-1.4v0c0-0.7,0.4-1.2,1.2-1.5c-0.3-0.4-0.5-0.7-0.5-1.1v0
		c0-0.7,0.5-1.2,1.3-1.2c0.7,0,1.2,0.5,1.2,1.1v0c0,0.6-0.5,1.1-1.2,1.3l1.2,1.2c0.2-0.3,0.4-0.7,0.6-1.1l0.5,0.2
		c-0.2,0.5-0.5,0.9-0.7,1.3l0.9,0.9l-0.4,0.3L38.6,85.4z M38.2,85.1l-1.4-1.4c-0.7,0.2-1,0.7-1,1.1v0c0,0.5,0.4,1,1.1,1
		C37.5,85.7,37.9,85.5,38.2,85.1 M38.1,82.2L38.1,82.2c0-0.4-0.3-0.7-0.7-0.7c-0.5,0-0.8,0.3-0.8,0.7v0c0,0.3,0.1,0.5,0.5,0.9
		C37.8,82.9,38.1,82.6,38.1,82.2"/>
	<path d="M45.6,81.1h2.2c0.6,0,1.1,0.2,1.4,0.5c0.2,0.2,0.4,0.6,0.4,1v0c0,0.8-0.6,1.3-1.4,1.5l1.6,2.1h-0.7l-1.5-2h0h-1.4v2h-0.6
		V81.1z M47.7,83.7c0.8,0,1.3-0.4,1.3-1v0c0-0.6-0.5-1-1.3-1h-1.6v2.1H47.7z"/>
	<polygon points="52.1,81.1 55.8,81.1 55.8,81.6 52.7,81.6 52.7,83.3 55.5,83.3 55.5,83.8 52.7,83.8 52.7,85.6 55.8,85.6 55.8,86.1 
		52.1,86.1 	"/>
	<path d="M58,85.4l0.4-0.4c0.5,0.5,1,0.7,1.7,0.7c0.7,0,1.1-0.4,1.1-0.9v0c0-0.5-0.3-0.7-1.3-1c-1.2-0.3-1.7-0.6-1.7-1.5v0
		c0-0.8,0.7-1.4,1.7-1.4c0.7,0,1.3,0.2,1.8,0.6l-0.3,0.4c-0.5-0.4-0.9-0.6-1.5-0.6c-0.7,0-1.1,0.4-1.1,0.8v0c0,0.5,0.3,0.7,1.4,1
		c1.1,0.2,1.7,0.7,1.7,1.4v0c0,0.9-0.7,1.4-1.7,1.4C59.2,86.2,58.6,86,58,85.4"/>
	<polygon points="65.5,81.6 63.8,81.6 63.8,81.1 67.8,81.1 67.8,81.6 66.1,81.6 66.1,86.1 65.5,86.1 	"/>
	<path d="M71.4,81h0.5l2.3,5.1h-0.6L73,84.8h-2.8l-0.6,1.3h-0.6L71.4,81z M72.8,84.3l-1.2-2.6l-1.2,2.6H72.8z"/>
	<path d="M76.3,84v-3h0.6V84c0,1.1,0.6,1.7,1.6,1.7c0.9,0,1.5-0.6,1.5-1.7v-3h0.6V84c0,1.5-0.8,2.2-2.1,2.2
		C77.1,86.2,76.3,85.5,76.3,84"/>
	<path d="M83.2,81.1h2.2c0.6,0,1.1,0.2,1.4,0.5c0.2,0.2,0.4,0.6,0.4,1v0c0,0.8-0.6,1.3-1.4,1.5l1.6,2.1h-0.7l-1.5-2h0h-1.4v2h-0.6
		V81.1z M85.3,83.7c0.8,0,1.3-0.4,1.3-1v0c0-0.6-0.5-1-1.3-1h-1.6v2.1H85.3z"/>
	<path d="M91.6,81h0.5l2.3,5.1h-0.6l-0.6-1.3h-2.8l-0.6,1.3h-0.6L91.6,81z M93,84.3l-1.2-2.6l-1.2,2.6H93z"/>
	<polygon points="96.8,81.1 97.3,81.1 100.5,85.1 100.5,81.1 101.1,81.1 101.1,86.1 100.6,86.1 97.3,82 97.3,86.1 96.8,86.1 	"/>
	<path d="M103.6,83.6L103.6,83.6c0-1.4,1-2.6,2.5-2.6c0.9,0,1.4,0.2,1.9,0.7l-0.4,0.4c-0.4-0.3-0.8-0.6-1.5-0.6
		c-1.1,0-1.9,1-1.9,2.1v0c0,1.2,0.8,2.1,2,2.1c0.6,0,1.1-0.2,1.5-0.5v-1.3h-1.5v-0.5h2.1v2c-0.5,0.4-1.2,0.8-2,0.8
		C104.6,86.2,103.6,85.1,103.6,83.6"/>
	<rect x="110.6" y="85.4" width="0.7" height="0.8"/>
	<path d="M0.1,53.3v-0.1c0-10.7,8.4-19,19.7-19c6.4,0,11,2,14.8,5.3l-6,7.2c-2.6-2.2-5.2-3.4-8.8-3.4c-5.3,0-9.3,4.4-9.3,10v0.1
		c0,5.9,4.1,10.1,9.9,10.1c2.5,0,4.3-0.5,5.8-1.5v-4.4h-7.2v-7.4h16.8v16.5c-3.9,3.2-9.2,5.6-15.9,5.6C8.6,72.2,0.1,64.4,0.1,53.3"
		/>
	<polygon points="39.4,34.9 49.6,34.9 49.6,62.6 67.3,62.6 67.3,71.5 39.4,71.5 	"/>
	<path d="M83.3,71.5h-9.8L58,34.7h10.9l2.7,6.5h14.1l2.6-6.5h10.7L83.3,71.5z M74.5,49.1l4.1,10.4l4.1-10.4H74.5z"/>
	<path d="M95.1,66l5.6-6.7c3.6,2.9,7.6,4.4,11.9,4.4c2.7,0,4.2-0.9,4.2-2.5v-0.1c0-1.5-1.2-2.4-6.2-3.5c-7.8-1.8-13.8-4-13.8-11.5
		V46c0-6.8,5.4-11.7,14.2-11.7c6.2,0,11.1,1.7,15,4.9l-5.1,7.2c-3.3-2.4-7-3.6-10.2-3.6c-2.5,0-3.7,1-3.7,2.4v0.1
		c0,1.7,1.3,2.4,6.3,3.6c8.4,1.8,13.6,4.5,13.6,11.4v0.1c0,7.5-5.9,11.9-14.8,11.9C105.7,72.1,99.6,70.1,95.1,66"/>
	<polygon points="129.8,34.9 140,34.9 140,49.8 152.5,34.9 164.6,34.9 150.7,50.6 165,71.5 152.9,71.5 143.7,57.9 140,62 140,71.5 
		129.8,71.5 	"/>
	<polygon points="165.9,34.9 176,34.9 176,62.6 193.7,62.6 193.7,71.5 165.9,71.5 	"/>
	<path d="M220.7,34.9H238c5.6,0,9.5,1.5,11.9,4c2.1,2.1,3.2,4.9,3.2,8.5v0.1c0,5.6-3,9.3-7.5,11.2l8.7,12.7h-11.7l-7.4-11.1h-0.1
		h-4.3v11.1h-10.1V34.9z M237.5,52.5c3.4,0,5.4-1.7,5.4-4.3V48c0-2.9-2.1-4.3-5.5-4.3h-6.6v8.8H237.5z"/>
	<polygon points="262.5,43.8 251.5,43.8 251.5,34.9 283.6,34.9 283.6,43.8 272.6,43.8 272.6,71.5 262.5,71.5 	"/>
	<polygon points="277.4,69.3 276.6,69.3 276.6,69 278.5,69 278.5,69.3 277.7,69.3 277.7,71.5 277.4,71.5 	"/>
	<polygon points="279.1,69 279.4,69 280.3,70.4 281.2,69 281.4,69 281.4,71.5 281.2,71.5 281.2,69.5 280.3,70.8 280.2,70.8 
		279.3,69.5 279.3,71.5 279.1,71.5 	"/>
	<path d="M202.9,26.7c0,0,0-0.1,0-0.1c0,0.1,0.1,0.2,0.1,0.2C202.9,26.8,202.9,26.8,202.9,26.7"/>
	<path d="M203.3,27.9C203.3,27.9,203.4,27.9,203.3,27.9C203.4,27.9,203.3,27.9,203.3,27.9"/>
	<path class="st0" d="M184.5,44.2c0.8,5.6,13,8.4,21.6,5.3c0.5-0.2,0.9-0.5,1.4-0.7c2.2-1.3,3.9-2.7,5.1-4.2
		c9.1-11.5-11.7-28.4-15.8-37.9c-1.2-2.8,1.7-5.7,4.8-4c1.2,0.7,2.3,1.8,3.1,3.2c0.1-3.1-2.8-6.9-6.8-5.7c-3.7,1.2-4.2,4.7-3.3,8.1
		l0,0.1C198.1,22.5,208,37.8,184.5,44.2"/>
	<path class="st0" d="M195,9.9c7.7,27.5-17.5,22.8-10.2,35.6c-0.7-5,3.9-8,9.2-7.1c5,0.9,18.4,3.4,4.5-20.7
		C196.9,15.2,195.5,11.7,195,9.9"/>
	<path class="st1" d="M195.2,10.8c5.3,25.7-18.1,22.7-10.4,34.9C178.9,33.1,202,37.2,195.2,10.8"/>
	<path class="st1" d="M197.6,16.2c0.3,0.5,0.5,1,0.7,1.5c4.7,9,7.9,18.1,4,19c-4.2,0.9-22.8-1.2-17.5,9.1c-0.9-2.3,0.2-5.6,4-6.8
		c14-1.8,19.3,1.3,14.1-12.2C201.4,22.9,199.5,19.6,197.6,16.2"/>
	<path class="st0" d="M198.2,44.2c3.1,0.2,13.1,2.7,15.7-1.5c-1.3,2.7-3.8,4.7-6.4,6.1c-1.7,1-3.7,1.7-5.8,2.2l0,0
		c-2.1,0.5-4.2,0.7-6.2,0.6C185.6,51,189.2,43.7,198.2,44.2"/>
	<path class="st2" d="M199.3,40.9c4.8-0.1,7.8-3.1,4.9-10.4c1.2,4.3,0.4,6-1.5,6.7c-3.3,1.2-21.7-1.1-17.9,8.3
		c0.7,1.8,2.4,3.5,4.6,4.5c1.2,0.5,2.5,1,3.9,1.3c-1.2-0.4-2.6-1-3.4-2.1C184.4,42.4,194.8,41.1,199.3,40.9"/>
	<path class="st2" d="M212.6,43.5c7.6-4.7-8.3-25.5-11.5-29.8c-2.8-3.7-4.4-6.7-4.5-7.9c0.4,1.7,2.2,4.6,4.8,7.8
		c5.1,6.2,11.6,14.7,13.4,21.5c0.8,2.8,0.2,5.1-1,7.7c-3.8,6.2-19.2-2.4-23.8,4.3C193.8,39.5,207.9,46.3,212.6,43.5"/>
	<path d="M204.3,12.6l-0.1,0c3.9,6.5,10.9,14.9,12.2,23.6c0.8,5-1.3,9.9-8.1,13.8c-1.8,1-3.8,1.8-6,2.3l-0.1,0l0,0l-0.1,0
		c-2.2,0.5-4.4,0.8-6.4,0.7c-7.8-0.3-11.8-3.8-13.4-8.6c-2.8-8.3-0.4-17.9,0.2-26.6c-0.1,0-0.1-0.1-0.2,0.3c-0.5,2.5-1,5.1-1.4,7.6
		c-1.3,8.5-2.6,22.3,6.3,27.3c6.4,3.5,13.9,1.6,16,10l3.3,13.8c0.4,1.6,0.8,2.7,0.7,3.6c-0.1,1-0.6,1.7-2.3,2.5
		c-2.9,1.3-6.1,1.4-6.9,3.8c3.3-0.8,6.6-1.6,10.1-2.4c1.1-0.3,2.2-0.5,3.3-0.8c1-0.2,1.9-0.5,2.9-0.7c2.5-0.6,4.9-1.2,7.2-1.7
		c-1.7-1.7-4.6-0.4-7.7-0.2l0,0c-0.1,0-0.1,0-0.2,0c-3.5,0.1-3.4-1.5-4.2-4.7l-3.3-13.8c-1.6-6.9,3.3-9.3,7.3-13.3l1.8-2.1
		c0.2-0.3,0.4-0.5,0.6-0.8C222.7,36.4,211.4,21.7,204.3,12.6"/>
</g>
</svg>
