<svg xmlns="http://www.w3.org/2000/svg" width="256" height="256" viewBox="0 0 100 100"><rect width="100" height="100" rx="20" fill="#13008c"></rect><path fill="#fff" d="M28.63 60.89Q27.46 60.89 26.74 60.48Q26.02 60.08 25.57 59.09L25.57 59.09L17.56 43.79Q17.02 42.80 16.39 41.27Q15.76 39.74 15.40 38.93L15.40 38.93L15.04 39.02Q15.58 42.62 15.58 44.51L15.58 44.51L15.58 79.07Q15.58 80.42 14.50 81.05Q13.42 81.68 10.99 81.68L10.99 81.68L8.56 81.68Q6.13 81.68 5.05 81.05Q3.97 80.42 3.97 79.07L3.97 79.07L3.97 20.93Q3.97 19.58 5.05 18.95Q6.13 18.32 8.56 18.32L8.56 18.32L11.08 18.32Q12.97 18.32 14.05 18.86Q15.13 19.40 15.76 20.57L15.76 20.57L28.09 44.15Q28.72 45.41 29.71 48.47L29.71 48.47Q30.16 46.22 31.24 44.15L31.24 44.15L43.48 20.57Q44.10 19.40 45.23 18.86Q46.35 18.32 48.24 18.32L48.24 18.32L50.67 18.32Q53.10 18.32 54.19 18.95Q55.27 19.58 55.27 20.93L55.27 20.93L55.27 79.07Q55.27 80.42 54.19 81.05Q53.10 81.68 50.67 81.68L50.67 81.68L48.34 81.68Q45.91 81.68 44.83 81.05Q43.74 80.42 43.74 79.07L43.74 79.07L43.74 44.51Q43.74 42.62 44.28 39.02L44.28 39.02L43.92 38.93Q42.76 41.99 41.67 43.79L41.67 43.79L33.76 59.09Q33.22 60.08 32.54 60.48Q31.87 60.89 30.70 60.89L30.70 60.89L28.63 60.89ZM71.02 81.68Q66.42 81.68 66.42 79.07L66.42 79.07L66.42 21.83Q66.42 20.03 67.14 19.27Q67.86 18.50 69.48 18.50L69.48 18.50L93.78 18.50Q96.03 18.50 96.03 22.37L96.03 22.37L96.03 24.71Q96.03 28.58 93.78 28.58L93.78 28.58L78.39 28.58L78.39 46.04L92.70 46.04Q94.95 46.04 94.95 49.91L94.95 49.91L94.95 52.25Q94.95 56.12 92.70 56.12L92.70 56.12L78.39 56.12L78.39 79.07Q78.39 80.42 77.31 81.05Q76.23 81.68 73.80 81.68L73.80 81.68L71.02 81.68Z"></path></svg>